<mxfile host="app.diagrams.net" modified="2023-04-15T01:55:18.403Z" agent="Mozilla/5.0 (Macintosh; Intel Mac OS X 10_15_7) AppleWebKit/537.36 (KHTML, like Gecko) Chrome/111.0.0.0 Safari/537.36" etag="8kxvThtiU-bR2v1dRFI5" version="21.1.8" type="github">
  <diagram name="Page-1" id="52a04d89-c75d-2922-d76d-85b35f80e030">
    <mxGraphModel dx="1956" dy="672" grid="1" gridSize="10" guides="1" tooltips="1" connect="1" arrows="1" fold="1" page="1" pageScale="1" pageWidth="1100" pageHeight="850" background="none" math="0" shadow="0">
      <root>
        <mxCell id="0" />
        <mxCell id="1" parent="0" />
        <mxCell id="1fdf3b25b50cf41e-1" value="EventFactory" style="swimlane;html=1;fontStyle=0;childLayout=stackLayout;horizontal=1;startSize=26;fillColor=#e0e0e0;horizontalStack=0;resizeParent=1;resizeLast=0;collapsible=1;marginBottom=0;swimlaneFillColor=#ffffff;align=center;rounded=1;shadow=0;comic=0;labelBackgroundColor=none;strokeWidth=1;fontFamily=Verdana;fontSize=12" parent="1" vertex="1">
          <mxGeometry x="300" y="140" width="300" height="52" as="geometry">
            <mxRectangle x="310" y="30" width="120" height="30" as="alternateBounds" />
          </mxGeometry>
        </mxCell>
        <mxCell id="1fdf3b25b50cf41e-2" value="0x6962d60830947e32d3D22bED3542E9e846CD3F01" style="text;html=1;strokeColor=none;fillColor=none;spacingLeft=4;spacingRight=4;whiteSpace=wrap;overflow=hidden;rotatable=0;points=[[0,0.5],[1,0.5]];portConstraint=eastwest;align=center;" parent="1fdf3b25b50cf41e-1" vertex="1">
          <mxGeometry y="26" width="300" height="26" as="geometry" />
        </mxCell>
        <mxCell id="1fdf3b25b50cf41e-7" value="EventContract" style="swimlane;html=1;fontStyle=0;childLayout=stackLayout;horizontal=1;startSize=26;fillColor=#e0e0e0;horizontalStack=0;resizeParent=1;resizeLast=0;collapsible=1;marginBottom=0;swimlaneFillColor=#ffffff;align=center;rounded=1;shadow=0;comic=0;labelBackgroundColor=none;strokeWidth=1;fontFamily=Verdana;fontSize=12" parent="1" vertex="1">
          <mxGeometry x="400" y="511" width="140" height="52" as="geometry">
            <mxRectangle x="480" y="261" width="130" height="30" as="alternateBounds" />
          </mxGeometry>
        </mxCell>
        <mxCell id="1fdf3b25b50cf41e-8" value="ConcertAddress2" style="text;html=1;strokeColor=none;fillColor=none;spacingLeft=4;spacingRight=4;whiteSpace=wrap;overflow=hidden;rotatable=0;points=[[0,0.5],[1,0.5]];portConstraint=eastwest;align=center;" parent="1fdf3b25b50cf41e-7" vertex="1">
          <mxGeometry y="26" width="140" height="26" as="geometry" />
        </mxCell>
        <mxCell id="1fdf3b25b50cf41e-9" value="NftMarktplace" style="swimlane;html=1;fontStyle=0;childLayout=stackLayout;horizontal=1;startSize=26;fillColor=#e0e0e0;horizontalStack=0;resizeParent=1;resizeLast=0;collapsible=1;marginBottom=0;swimlaneFillColor=#ffffff;align=center;rounded=1;shadow=0;comic=0;labelBackgroundColor=none;strokeWidth=1;fontFamily=Verdana;fontSize=12" parent="1" vertex="1">
          <mxGeometry x="300" y="70" width="300" height="52" as="geometry">
            <mxRectangle x="310" y="-40" width="120" height="30" as="alternateBounds" />
          </mxGeometry>
        </mxCell>
        <mxCell id="1fdf3b25b50cf41e-10" value="0x879f5a1608e4CEd89766a6A2e1051Fd7e1B13698" style="text;html=1;strokeColor=none;fillColor=none;spacingLeft=4;spacingRight=4;whiteSpace=wrap;overflow=hidden;rotatable=0;points=[[0,0.5],[1,0.5]];portConstraint=eastwest;align=center;" parent="1fdf3b25b50cf41e-9" vertex="1">
          <mxGeometry y="26" width="300" height="26" as="geometry" />
        </mxCell>
        <mxCell id="STo0ywlDnxJFYaiJRFh0-23" style="edgeStyle=orthogonalEdgeStyle;rounded=0;orthogonalLoop=1;jettySize=auto;html=1;entryX=0.493;entryY=1.038;entryDx=0;entryDy=0;entryPerimeter=0;" edge="1" parent="1" source="1fdf3b25b50cf41e-13" target="1fdf3b25b50cf41e-8">
          <mxGeometry relative="1" as="geometry" />
        </mxCell>
        <mxCell id="1fdf3b25b50cf41e-13" value="IEventContract" style="swimlane;html=1;fontStyle=0;childLayout=stackLayout;horizontal=1;startSize=26;fillColor=#e0e0e0;horizontalStack=0;resizeParent=1;resizeLast=0;collapsible=1;marginBottom=0;swimlaneFillColor=#ffffff;align=center;rounded=1;shadow=0;comic=0;labelBackgroundColor=none;strokeWidth=1;fontFamily=Verdana;fontSize=12" parent="1" vertex="1">
          <mxGeometry x="400" y="640" width="140" height="52" as="geometry">
            <mxRectangle x="410" y="490" width="130" height="30" as="alternateBounds" />
          </mxGeometry>
        </mxCell>
        <mxCell id="1fdf3b25b50cf41e-14" value="Interface file" style="text;html=1;strokeColor=none;fillColor=none;spacingLeft=4;spacingRight=4;whiteSpace=wrap;overflow=hidden;rotatable=0;points=[[0,0.5],[1,0.5]];portConstraint=eastwest;align=center;" parent="1fdf3b25b50cf41e-13" vertex="1">
          <mxGeometry y="26" width="140" height="26" as="geometry" />
        </mxCell>
        <mxCell id="STo0ywlDnxJFYaiJRFh0-19" style="edgeStyle=orthogonalEdgeStyle;rounded=0;orthogonalLoop=1;jettySize=auto;html=1;entryX=0;entryY=0.115;entryDx=0;entryDy=0;entryPerimeter=0;" edge="1" parent="1" source="STo0ywlDnxJFYaiJRFh0-1" target="STo0ywlDnxJFYaiJRFh0-15">
          <mxGeometry relative="1" as="geometry" />
        </mxCell>
        <mxCell id="STo0ywlDnxJFYaiJRFh0-28" value="create event" style="edgeLabel;html=1;align=center;verticalAlign=middle;resizable=0;points=[];" vertex="1" connectable="0" parent="STo0ywlDnxJFYaiJRFh0-19">
          <mxGeometry x="-0.2308" y="2" relative="1" as="geometry">
            <mxPoint as="offset" />
          </mxGeometry>
        </mxCell>
        <mxCell id="STo0ywlDnxJFYaiJRFh0-1" value="Event Organizers" style="shape=umlActor;verticalLabelPosition=bottom;verticalAlign=top;html=1;outlineConnect=0;" vertex="1" parent="1">
          <mxGeometry x="160" y="359" width="30" height="70" as="geometry" />
        </mxCell>
        <mxCell id="STo0ywlDnxJFYaiJRFh0-12" style="edgeStyle=orthogonalEdgeStyle;rounded=0;orthogonalLoop=1;jettySize=auto;html=1;exitX=0.5;exitY=0.5;exitDx=0;exitDy=0;exitPerimeter=0;entryX=0;entryY=0.5;entryDx=0;entryDy=0;" edge="1" parent="1" source="STo0ywlDnxJFYaiJRFh0-2" target="1fdf3b25b50cf41e-9">
          <mxGeometry relative="1" as="geometry" />
        </mxCell>
        <mxCell id="STo0ywlDnxJFYaiJRFh0-13" style="edgeStyle=orthogonalEdgeStyle;rounded=0;orthogonalLoop=1;jettySize=auto;html=1;exitX=0.5;exitY=0.5;exitDx=0;exitDy=0;exitPerimeter=0;entryX=0;entryY=0.5;entryDx=0;entryDy=0;" edge="1" parent="1" source="STo0ywlDnxJFYaiJRFh0-2" target="1fdf3b25b50cf41e-1">
          <mxGeometry relative="1" as="geometry" />
        </mxCell>
        <mxCell id="STo0ywlDnxJFYaiJRFh0-53" value="Deploy" style="edgeLabel;html=1;align=center;verticalAlign=middle;resizable=0;points=[];" vertex="1" connectable="0" parent="STo0ywlDnxJFYaiJRFh0-13">
          <mxGeometry x="-0.5789" y="-2" relative="1" as="geometry">
            <mxPoint as="offset" />
          </mxGeometry>
        </mxCell>
        <mxCell id="STo0ywlDnxJFYaiJRFh0-2" value="Deployer" style="shape=umlActor;verticalLabelPosition=bottom;verticalAlign=top;html=1;outlineConnect=0;" vertex="1" parent="1">
          <mxGeometry x="170" y="80" width="30" height="60" as="geometry" />
        </mxCell>
        <mxCell id="STo0ywlDnxJFYaiJRFh0-7" value="EventContract" style="swimlane;html=1;fontStyle=0;childLayout=stackLayout;horizontal=1;startSize=26;fillColor=#e0e0e0;horizontalStack=0;resizeParent=1;resizeLast=0;collapsible=1;marginBottom=0;swimlaneFillColor=#ffffff;align=center;rounded=1;shadow=0;comic=0;labelBackgroundColor=none;strokeWidth=1;fontFamily=Verdana;fontSize=12" vertex="1" parent="1">
          <mxGeometry x="580" y="511" width="140" height="52" as="geometry">
            <mxRectangle x="480" y="350" width="130" height="30" as="alternateBounds" />
          </mxGeometry>
        </mxCell>
        <mxCell id="STo0ywlDnxJFYaiJRFh0-8" value="ConcertAddress3" style="text;html=1;strokeColor=none;fillColor=none;spacingLeft=4;spacingRight=4;whiteSpace=wrap;overflow=hidden;rotatable=0;points=[[0,0.5],[1,0.5]];portConstraint=eastwest;align=center;" vertex="1" parent="STo0ywlDnxJFYaiJRFh0-7">
          <mxGeometry y="26" width="140" height="26" as="geometry" />
        </mxCell>
        <mxCell id="STo0ywlDnxJFYaiJRFh0-9" value="EventContract" style="swimlane;html=1;fontStyle=0;childLayout=stackLayout;horizontal=1;startSize=26;fillColor=#e0e0e0;horizontalStack=0;resizeParent=1;resizeLast=0;collapsible=1;marginBottom=0;swimlaneFillColor=#ffffff;align=center;rounded=1;shadow=0;comic=0;labelBackgroundColor=none;strokeWidth=1;fontFamily=Verdana;fontSize=12" vertex="1" parent="1">
          <mxGeometry x="230" y="510" width="140" height="52" as="geometry">
            <mxRectangle x="480" y="190" width="130" height="30" as="alternateBounds" />
          </mxGeometry>
        </mxCell>
        <mxCell id="STo0ywlDnxJFYaiJRFh0-10" value="ConcertAddress1" style="text;html=1;strokeColor=none;fillColor=none;spacingLeft=4;spacingRight=4;whiteSpace=wrap;overflow=hidden;rotatable=0;points=[[0,0.5],[1,0.5]];portConstraint=eastwest;align=center;" vertex="1" parent="STo0ywlDnxJFYaiJRFh0-9">
          <mxGeometry y="26" width="140" height="26" as="geometry" />
        </mxCell>
        <mxCell id="STo0ywlDnxJFYaiJRFh0-22" style="edgeStyle=orthogonalEdgeStyle;rounded=0;orthogonalLoop=1;jettySize=auto;html=1;exitX=0.5;exitY=0.5;exitDx=0;exitDy=0;exitPerimeter=0;entryX=0;entryY=0.5;entryDx=0;entryDy=0;" edge="1" parent="1" source="STo0ywlDnxJFYaiJRFh0-11" target="STo0ywlDnxJFYaiJRFh0-21">
          <mxGeometry relative="1" as="geometry" />
        </mxCell>
        <mxCell id="STo0ywlDnxJFYaiJRFh0-27" value="mint, buy,sell, list etc." style="edgeLabel;html=1;align=center;verticalAlign=middle;resizable=0;points=[];" vertex="1" connectable="0" parent="STo0ywlDnxJFYaiJRFh0-22">
          <mxGeometry x="-0.1728" y="-2" relative="1" as="geometry">
            <mxPoint as="offset" />
          </mxGeometry>
        </mxCell>
        <mxCell id="STo0ywlDnxJFYaiJRFh0-11" value="Event Attendees" style="shape=umlActor;verticalLabelPosition=bottom;verticalAlign=top;html=1;outlineConnect=0;" vertex="1" parent="1">
          <mxGeometry x="160" y="753" width="30" height="70" as="geometry" />
        </mxCell>
        <mxCell id="STo0ywlDnxJFYaiJRFh0-16" style="edgeStyle=orthogonalEdgeStyle;rounded=0;orthogonalLoop=1;jettySize=auto;html=1;" edge="1" parent="1" source="STo0ywlDnxJFYaiJRFh0-14" target="STo0ywlDnxJFYaiJRFh0-9">
          <mxGeometry relative="1" as="geometry" />
        </mxCell>
        <mxCell id="STo0ywlDnxJFYaiJRFh0-14" value="EventFactory" style="swimlane;html=1;fontStyle=0;childLayout=stackLayout;horizontal=1;startSize=26;fillColor=#e0e0e0;horizontalStack=0;resizeParent=1;resizeLast=0;collapsible=1;marginBottom=0;swimlaneFillColor=#ffffff;align=center;rounded=1;shadow=0;comic=0;labelBackgroundColor=none;strokeWidth=1;fontFamily=Verdana;fontSize=12" vertex="1" parent="1">
          <mxGeometry x="320" y="365" width="300" height="52" as="geometry">
            <mxRectangle x="310" y="30" width="120" height="30" as="alternateBounds" />
          </mxGeometry>
        </mxCell>
        <mxCell id="STo0ywlDnxJFYaiJRFh0-15" value="0x6962d60830947e32d3D22bED3542E9e846CD3F01" style="text;html=1;strokeColor=none;fillColor=none;spacingLeft=4;spacingRight=4;whiteSpace=wrap;overflow=hidden;rotatable=0;points=[[0,0.5],[1,0.5]];portConstraint=eastwest;align=center;" vertex="1" parent="STo0ywlDnxJFYaiJRFh0-14">
          <mxGeometry y="26" width="300" height="26" as="geometry" />
        </mxCell>
        <mxCell id="STo0ywlDnxJFYaiJRFh0-17" style="edgeStyle=orthogonalEdgeStyle;rounded=0;orthogonalLoop=1;jettySize=auto;html=1;exitX=0.487;exitY=0.962;exitDx=0;exitDy=0;exitPerimeter=0;entryX=0.5;entryY=0;entryDx=0;entryDy=0;" edge="1" parent="1" source="STo0ywlDnxJFYaiJRFh0-15" target="1fdf3b25b50cf41e-7">
          <mxGeometry relative="1" as="geometry">
            <mxPoint x="450" y="430" as="sourcePoint" />
            <mxPoint x="310" y="520" as="targetPoint" />
          </mxGeometry>
        </mxCell>
        <mxCell id="STo0ywlDnxJFYaiJRFh0-18" style="edgeStyle=orthogonalEdgeStyle;rounded=0;orthogonalLoop=1;jettySize=auto;html=1;exitX=0.493;exitY=1;exitDx=0;exitDy=0;exitPerimeter=0;entryX=0.5;entryY=0;entryDx=0;entryDy=0;" edge="1" parent="1" source="STo0ywlDnxJFYaiJRFh0-15" target="STo0ywlDnxJFYaiJRFh0-7">
          <mxGeometry relative="1" as="geometry">
            <mxPoint x="460" y="440" as="sourcePoint" />
            <mxPoint x="320" y="530" as="targetPoint" />
          </mxGeometry>
        </mxCell>
        <mxCell id="STo0ywlDnxJFYaiJRFh0-29" value="create with different configuration and ownership" style="edgeLabel;html=1;align=center;verticalAlign=middle;resizable=0;points=[];" vertex="1" connectable="0" parent="STo0ywlDnxJFYaiJRFh0-18">
          <mxGeometry x="-0.9058" y="2" relative="1" as="geometry">
            <mxPoint as="offset" />
          </mxGeometry>
        </mxCell>
        <mxCell id="STo0ywlDnxJFYaiJRFh0-20" value="NftMarktplace" style="swimlane;html=1;fontStyle=0;childLayout=stackLayout;horizontal=1;startSize=26;fillColor=#e0e0e0;horizontalStack=0;resizeParent=1;resizeLast=0;collapsible=1;marginBottom=0;swimlaneFillColor=#ffffff;align=center;rounded=1;shadow=0;comic=0;labelBackgroundColor=none;strokeWidth=1;fontFamily=Verdana;fontSize=12" vertex="1" parent="1">
          <mxGeometry x="317" y="749" width="300" height="52" as="geometry">
            <mxRectangle x="310" y="-40" width="120" height="30" as="alternateBounds" />
          </mxGeometry>
        </mxCell>
        <mxCell id="STo0ywlDnxJFYaiJRFh0-21" value="0x879f5a1608e4CEd89766a6A2e1051Fd7e1B13698" style="text;html=1;strokeColor=none;fillColor=none;spacingLeft=4;spacingRight=4;whiteSpace=wrap;overflow=hidden;rotatable=0;points=[[0,0.5],[1,0.5]];portConstraint=eastwest;align=center;" vertex="1" parent="STo0ywlDnxJFYaiJRFh0-20">
          <mxGeometry y="26" width="300" height="26" as="geometry" />
        </mxCell>
        <mxCell id="STo0ywlDnxJFYaiJRFh0-24" style="edgeStyle=orthogonalEdgeStyle;rounded=0;orthogonalLoop=1;jettySize=auto;html=1;entryX=0.464;entryY=0.962;entryDx=0;entryDy=0;entryPerimeter=0;exitX=0.5;exitY=0;exitDx=0;exitDy=0;" edge="1" parent="1" source="1fdf3b25b50cf41e-13" target="STo0ywlDnxJFYaiJRFh0-10">
          <mxGeometry relative="1" as="geometry">
            <mxPoint x="480" y="650" as="sourcePoint" />
            <mxPoint x="479" y="574" as="targetPoint" />
          </mxGeometry>
        </mxCell>
        <mxCell id="STo0ywlDnxJFYaiJRFh0-25" style="edgeStyle=orthogonalEdgeStyle;rounded=0;orthogonalLoop=1;jettySize=auto;html=1;entryX=0.543;entryY=1;entryDx=0;entryDy=0;entryPerimeter=0;" edge="1" parent="1" source="1fdf3b25b50cf41e-13" target="STo0ywlDnxJFYaiJRFh0-8">
          <mxGeometry relative="1" as="geometry">
            <mxPoint x="490" y="660" as="sourcePoint" />
            <mxPoint x="305" y="571" as="targetPoint" />
          </mxGeometry>
        </mxCell>
        <mxCell id="STo0ywlDnxJFYaiJRFh0-30" value="Contract Interaction" style="edgeLabel;html=1;align=center;verticalAlign=middle;resizable=0;points=[];" vertex="1" connectable="0" parent="STo0ywlDnxJFYaiJRFh0-25">
          <mxGeometry x="-0.8403" y="3" relative="1" as="geometry">
            <mxPoint as="offset" />
          </mxGeometry>
        </mxCell>
        <mxCell id="STo0ywlDnxJFYaiJRFh0-26" style="edgeStyle=orthogonalEdgeStyle;rounded=0;orthogonalLoop=1;jettySize=auto;html=1;exitX=0.5;exitY=0;exitDx=0;exitDy=0;entryX=0.479;entryY=0.962;entryDx=0;entryDy=0;entryPerimeter=0;" edge="1" parent="1" source="STo0ywlDnxJFYaiJRFh0-20" target="1fdf3b25b50cf41e-14">
          <mxGeometry relative="1" as="geometry">
            <mxPoint x="480" y="650" as="sourcePoint" />
            <mxPoint x="305" y="571" as="targetPoint" />
          </mxGeometry>
        </mxCell>
        <mxCell id="STo0ywlDnxJFYaiJRFh0-31" value="EventContract" style="swimlane;html=1;fontStyle=0;childLayout=stackLayout;horizontal=1;startSize=26;fillColor=#e0e0e0;horizontalStack=0;resizeParent=1;resizeLast=0;collapsible=1;marginBottom=0;swimlaneFillColor=#ffffff;align=center;rounded=1;shadow=0;comic=0;labelBackgroundColor=none;strokeWidth=1;fontFamily=Verdana;fontSize=12" vertex="1" collapsed="1" parent="1">
          <mxGeometry x="770" y="115" width="130" height="30" as="geometry">
            <mxRectangle x="810" y="82" width="140" height="52" as="alternateBounds" />
          </mxGeometry>
        </mxCell>
        <mxCell id="STo0ywlDnxJFYaiJRFh0-36" value="ownable" style="rounded=0;whiteSpace=wrap;html=1;" vertex="1" parent="1">
          <mxGeometry x="640" y="255" width="90" height="25" as="geometry" />
        </mxCell>
        <mxCell id="STo0ywlDnxJFYaiJRFh0-37" value="ERC-721 NFT" style="rounded=0;whiteSpace=wrap;html=1;" vertex="1" parent="1">
          <mxGeometry x="730" y="175" width="90" height="40" as="geometry" />
        </mxCell>
        <mxCell id="STo0ywlDnxJFYaiJRFh0-39" value="ERC-2981 Royalty payment for NFT" style="rounded=0;whiteSpace=wrap;html=1;" vertex="1" parent="1">
          <mxGeometry x="840" y="175" width="140" height="35" as="geometry" />
        </mxCell>
        <mxCell id="STo0ywlDnxJFYaiJRFh0-40" value="URIStorage" style="rounded=0;whiteSpace=wrap;html=1;" vertex="1" parent="1">
          <mxGeometry x="780" y="255" width="90" height="25" as="geometry" />
        </mxCell>
        <mxCell id="STo0ywlDnxJFYaiJRFh0-41" value="" style="endArrow=classic;html=1;rounded=0;entryX=0.5;entryY=0;entryDx=0;entryDy=0;exitX=0.5;exitY=1;exitDx=0;exitDy=0;" edge="1" parent="1" source="STo0ywlDnxJFYaiJRFh0-31" target="STo0ywlDnxJFYaiJRFh0-37">
          <mxGeometry width="50" height="50" relative="1" as="geometry">
            <mxPoint x="720" y="155" as="sourcePoint" />
            <mxPoint x="770" y="105" as="targetPoint" />
          </mxGeometry>
        </mxCell>
        <mxCell id="STo0ywlDnxJFYaiJRFh0-49" value="Inhere" style="edgeLabel;html=1;align=center;verticalAlign=middle;resizable=0;points=[];" vertex="1" connectable="0" parent="STo0ywlDnxJFYaiJRFh0-41">
          <mxGeometry x="-0.3067" y="2" relative="1" as="geometry">
            <mxPoint as="offset" />
          </mxGeometry>
        </mxCell>
        <mxCell id="STo0ywlDnxJFYaiJRFh0-42" value="" style="endArrow=classic;html=1;rounded=0;entryX=0.5;entryY=0;entryDx=0;entryDy=0;exitX=0.5;exitY=1;exitDx=0;exitDy=0;" edge="1" parent="1" source="STo0ywlDnxJFYaiJRFh0-31" target="STo0ywlDnxJFYaiJRFh0-39">
          <mxGeometry width="50" height="50" relative="1" as="geometry">
            <mxPoint x="845" y="155" as="sourcePoint" />
            <mxPoint x="785" y="185" as="targetPoint" />
          </mxGeometry>
        </mxCell>
        <mxCell id="STo0ywlDnxJFYaiJRFh0-50" value="Inhere" style="edgeLabel;html=1;align=center;verticalAlign=middle;resizable=0;points=[];" vertex="1" connectable="0" parent="STo0ywlDnxJFYaiJRFh0-42">
          <mxGeometry x="-0.1126" y="-1" relative="1" as="geometry">
            <mxPoint as="offset" />
          </mxGeometry>
        </mxCell>
        <mxCell id="STo0ywlDnxJFYaiJRFh0-43" value="" style="endArrow=classic;html=1;rounded=0;entryX=0.5;entryY=0;entryDx=0;entryDy=0;exitX=0.5;exitY=1;exitDx=0;exitDy=0;" edge="1" parent="1" source="STo0ywlDnxJFYaiJRFh0-37" target="STo0ywlDnxJFYaiJRFh0-36">
          <mxGeometry width="50" height="50" relative="1" as="geometry">
            <mxPoint x="845" y="155" as="sourcePoint" />
            <mxPoint x="785" y="185" as="targetPoint" />
          </mxGeometry>
        </mxCell>
        <mxCell id="STo0ywlDnxJFYaiJRFh0-51" value="Extend" style="edgeLabel;html=1;align=center;verticalAlign=middle;resizable=0;points=[];" vertex="1" connectable="0" parent="STo0ywlDnxJFYaiJRFh0-43">
          <mxGeometry x="-0.3862" y="1" relative="1" as="geometry">
            <mxPoint as="offset" />
          </mxGeometry>
        </mxCell>
        <mxCell id="STo0ywlDnxJFYaiJRFh0-44" value="" style="endArrow=classic;html=1;rounded=0;entryX=0.5;entryY=0;entryDx=0;entryDy=0;exitX=0.5;exitY=1;exitDx=0;exitDy=0;" edge="1" parent="1" source="STo0ywlDnxJFYaiJRFh0-37" target="STo0ywlDnxJFYaiJRFh0-40">
          <mxGeometry width="50" height="50" relative="1" as="geometry">
            <mxPoint x="785" y="225" as="sourcePoint" />
            <mxPoint x="735" y="239" as="targetPoint" />
          </mxGeometry>
        </mxCell>
        <mxCell id="STo0ywlDnxJFYaiJRFh0-52" value="Extend" style="edgeLabel;html=1;align=center;verticalAlign=middle;resizable=0;points=[];" vertex="1" connectable="0" parent="STo0ywlDnxJFYaiJRFh0-44">
          <mxGeometry x="-0.4069" y="-2" relative="1" as="geometry">
            <mxPoint as="offset" />
          </mxGeometry>
        </mxCell>
        <mxCell id="STo0ywlDnxJFYaiJRFh0-45" value="&lt;u&gt;One time Deployment&lt;/u&gt;" style="text;html=1;strokeColor=none;fillColor=none;align=center;verticalAlign=middle;whiteSpace=wrap;rounded=0;" vertex="1" parent="1">
          <mxGeometry x="150" y="10" width="135" height="30" as="geometry" />
        </mxCell>
        <mxCell id="STo0ywlDnxJFYaiJRFh0-46" value="&lt;u&gt;Create Event&lt;/u&gt;" style="text;html=1;strokeColor=none;fillColor=none;align=center;verticalAlign=middle;whiteSpace=wrap;rounded=0;" vertex="1" parent="1">
          <mxGeometry x="110" y="300" width="135" height="30" as="geometry" />
        </mxCell>
        <mxCell id="STo0ywlDnxJFYaiJRFh0-47" value="&lt;u&gt;Interact with the Event or Ticket&lt;/u&gt;" style="text;html=1;strokeColor=none;fillColor=none;align=center;verticalAlign=middle;whiteSpace=wrap;rounded=0;" vertex="1" parent="1">
          <mxGeometry x="120" y="680" width="135" height="30" as="geometry" />
        </mxCell>
        <mxCell id="STo0ywlDnxJFYaiJRFh0-54" value="IEventContract" style="swimlane;html=1;fontStyle=0;childLayout=stackLayout;horizontal=1;startSize=26;fillColor=#e0e0e0;horizontalStack=0;resizeParent=1;resizeLast=0;collapsible=1;marginBottom=0;swimlaneFillColor=#ffffff;align=center;rounded=1;shadow=0;comic=0;labelBackgroundColor=none;strokeWidth=1;fontFamily=Verdana;fontSize=12" vertex="1" collapsed="1" parent="1">
          <mxGeometry x="770" y="60" width="130" height="30" as="geometry">
            <mxRectangle x="755" y="40" width="140" height="52" as="alternateBounds" />
          </mxGeometry>
        </mxCell>
        <mxCell id="STo0ywlDnxJFYaiJRFh0-55" value="Interface file" style="text;html=1;strokeColor=none;fillColor=none;spacingLeft=4;spacingRight=4;whiteSpace=wrap;overflow=hidden;rotatable=0;points=[[0,0.5],[1,0.5]];portConstraint=eastwest;align=center;" vertex="1" parent="STo0ywlDnxJFYaiJRFh0-54">
          <mxGeometry y="26" width="140" height="26" as="geometry" />
        </mxCell>
        <mxCell id="STo0ywlDnxJFYaiJRFh0-56" value="" style="endArrow=none;dashed=1;html=1;dashPattern=1 3;strokeWidth=2;rounded=0;entryX=0;entryY=0.5;entryDx=0;entryDy=0;exitX=1;exitY=-0.038;exitDx=0;exitDy=0;exitPerimeter=0;" edge="1" parent="1" source="1fdf3b25b50cf41e-2" target="STo0ywlDnxJFYaiJRFh0-31">
          <mxGeometry width="50" height="50" relative="1" as="geometry">
            <mxPoint x="640" y="190" as="sourcePoint" />
            <mxPoint x="690" y="140" as="targetPoint" />
          </mxGeometry>
        </mxCell>
        <mxCell id="STo0ywlDnxJFYaiJRFh0-57" value="Deploy when create" style="edgeLabel;html=1;align=center;verticalAlign=middle;resizable=0;points=[];" vertex="1" connectable="0" parent="STo0ywlDnxJFYaiJRFh0-56">
          <mxGeometry x="-0.1296" y="5" relative="1" as="geometry">
            <mxPoint as="offset" />
          </mxGeometry>
        </mxCell>
        <mxCell id="STo0ywlDnxJFYaiJRFh0-58" value="" style="endArrow=none;dashed=1;html=1;dashPattern=1 3;strokeWidth=2;rounded=0;entryX=0;entryY=0.5;entryDx=0;entryDy=0;exitX=1.003;exitY=0.077;exitDx=0;exitDy=0;exitPerimeter=0;" edge="1" parent="1" source="1fdf3b25b50cf41e-10" target="STo0ywlDnxJFYaiJRFh0-54">
          <mxGeometry width="50" height="50" relative="1" as="geometry">
            <mxPoint x="610" y="175" as="sourcePoint" />
            <mxPoint x="780" y="140" as="targetPoint" />
          </mxGeometry>
        </mxCell>
        <mxCell id="STo0ywlDnxJFYaiJRFh0-59" value="Interface file" style="edgeLabel;html=1;align=center;verticalAlign=middle;resizable=0;points=[];" vertex="1" connectable="0" parent="STo0ywlDnxJFYaiJRFh0-58">
          <mxGeometry x="-0.1296" y="5" relative="1" as="geometry">
            <mxPoint as="offset" />
          </mxGeometry>
        </mxCell>
      </root>
    </mxGraphModel>
  </diagram>
</mxfile>
